<svg id="Слой_1" data-name="Слой 1" xmlns="http://www.w3.org/2000/svg" viewBox="0 0 1386.7 280.52"><g id="Слой_2" data-name="Слой 2"><g id="Слой_1-2" data-name="Слой 1-2"><path d="M359,144.2l-22.1,24.1-30-27.5L236.8,76.6l-11.6,6.9L221,86l-76.3,45.5-3.4,2-2.4,1.4-.8.5-34.9,20.8L59.3,182.4l-.8.5L37.7,195.3a12.92,12.92,0,0,1-17.8-4.5h0l-2.5-4.2a14.7,14.7,0,0,1,5.1-20.2l36.1-21.5,19.6-11.7V110.7A13.51,13.51,0,0,1,91.7,97.2h46.4l73.5-43.5,8.6-5.1L241,36.1l12.2,11.2,4.1,3.7,48.8,44.7Z" transform="translate(-14.8 -35.48)" fill="#333" stroke="#333" stroke-miterlimit="10"/><line x1="122.7" y1="61.52" x2="123.1" y2="61.52" fill="none" stroke="#000" stroke-miterlimit="10"/><path d="M224.2,249.8l-12.7,16.7-10.1,13.3-.8,1.1-5.4,7.1h0l-.3.5a14.91,14.91,0,0,1-4.4,3.9l-.6.3a14.71,14.71,0,0,1-10.1,1.2l-.6-.1a14.11,14.11,0,0,1-7.8-5.3l-2.3-3-.6-.7L156.7,269l-13-17.2h0l-.1-5.6h0l-1.7-90.1-.4-22.8,3.4-2L221.1,86l3,157h0Z" transform="translate(-14.8 -35.48)" fill="red"/><path d="M308.9,240l-34.4,45.3-.5.7-.2.3a10.51,10.51,0,0,1-14.7,2h0a12.61,12.61,0,0,1-2-2l-15-19.7-13.5-17.8-.1-4.3L225.4,83.6,237,76.7l70.1,64.2Z" transform="translate(-14.8 -35.48)" fill="#39b54a"/><line x1="209.3" y1="248.52" x2="209.3" y2="248.52" fill="none" stroke="#000" stroke-miterlimit="10"/><path d="M121.7,94.5H85.6a7.26,7.26,0,0,1-7-7.5V72a7.32,7.32,0,0,1,7-7.5h36.1a7.26,7.26,0,0,1,7,7.5V87.1A7.11,7.11,0,0,1,121.7,94.5Z" transform="translate(-14.8 -35.48)" fill="#333" stroke="#333" stroke-miterlimit="10"/><polygon points="126.4 213.92 126.4 213.92 111.5 233.52 99.6 249.22 99.6 197.22 111.4 190.42 111.4 159.62 97.1 151.12 97.1 177.32 73.3 177.32 73.3 150.82 58 159.62 58 190.42 70 197.32 70 244.22 45.8 212.42 44.5 147.32 45.4 146.82 89.3 120.72 124.2 99.82 124.6 120.72 126.4 213.02 126.4 213.92" fill="#0071bc"/><path d="M126.2,195.1v30.8l-11.8,6.8v51.9l-3.8,4.9h0l-.3.4-.1.1V249a3.3,3.3,0,1,0-6.6,0v45.2A11.09,11.09,0,0,1,92.5,290h0l-7.8-10.2V232.9l-12-6.9V195.2L88,186.4V213h23.8V186.7Z" transform="translate(-14.8 -35.48)" fill="#fff"/><path d="M110.3,249v41.1a11,11,0,0,1-6.6,4.1V249a3.3,3.3,0,0,1,6.6,0Z" transform="translate(-14.8 -35.48)" fill="#0071bc"/><polygon points="173.9 197.52 165.7 197.52 165.7 135.92 163.2 126.82 165.7 111.22 173.9 111.22 176.4 126.82 173.9 135.92 173.9 197.52" fill="#fff"/><rect x="149.3" y="198.32" width="39.4" height="5.8" fill="#fff"/><rect x="151.7" y="204.92" width="35.3" height="5.8" fill="#fff"/><path d="M190,247.2v47a14.71,14.71,0,0,1-10.1,1.2V247.2Z" transform="translate(-14.8 -35.48)" fill="#fff"/><path d="M199.4,247.2v35.3l-4.3,7.1h0l-.3.5a14.44,14.44,0,0,1-3.5,3.9V247.3h8.1Z" transform="translate(-14.8 -35.48)" fill="#fff"/><path d="M178.5,247.2v48.1a12,12,0,0,1-6.6-5.3l-2-3V247.2Z" transform="translate(-14.8 -35.48)" fill="#fff"/><rect x="223.6" y="151.92" width="56.7" height="14" fill="#fff"/><rect x="223.6" y="161.72" width="56.7" height="8.2" fill="none"/><path d="M295.1,205.4l-.7,2.9a6.58,6.58,0,0,1-4.7,4.7l-11,2.8a6.44,6.44,0,0,0-4.9,6.4l.7,63.2-.5.7-.2.3a10.51,10.51,0,0,1-14.7,2h0V221.9a6.1,6.1,0,0,0-4.6-5.9l-10.4-2.7a6.77,6.77,0,0,1-4.9-4.9l-.7-2.7h56.6Z" transform="translate(-14.8 -35.48)" fill="#fff"/><polygon points="224 149.82 224 130.72 234.2 113.72 236.4 112.02 240.5 121.12 243 112.02 245.4 128.52 250.3 109.62 252.7 117.22 260 113.72 261 117.02 265.1 110.42 267.6 118.62 273.5 109.62 278.3 122.72 280.7 129.72 280.7 149.82 224 149.82" fill="#fff"/></g></g><path d="M469.2,202.2a39.62,39.62,0,0,1-15.4-16.5,54.13,54.13,0,0,1-5.5-24.7V126.4c0-9.4,1.8-17.6,5.5-24.7a40.26,40.26,0,0,1,15.4-16.5,44.47,44.47,0,0,1,23-5.9A42.23,42.23,0,0,1,527.3,97a49.77,49.77,0,0,1,8.3,19.7H517.5a27.87,27.87,0,0,0-5.5-10.5,27.41,27.41,0,0,0-9.1-7.2,24.3,24.3,0,0,0-33.3,11.7,36.66,36.66,0,0,0-3.2,15.7V161a36.52,36.52,0,0,0,3.2,15.6,23.75,23.75,0,0,0,22.5,14.2,26.5,26.5,0,0,0,10.8-2.3,27.12,27.12,0,0,0,9-6.9,27.42,27.42,0,0,0,5.5-10.9h18.1a48.37,48.37,0,0,1-8.3,19.7,41.9,41.9,0,0,1-15.3,13.1,43.15,43.15,0,0,1-19.9,4.6C483.5,208,475.8,206.1,469.2,202.2Z" transform="translate(-14.8 -35.48)" fill="#333"/><path d="M543.5,80.6h89V97.4h-89Zm35.6,10.3h17.7V206.7H579.1Z" transform="translate(-14.8 -35.48)" fill="#333"/><path d="M646.4,80.6H664V206.7H646.3V80.6Zm9.1,60.3h40.3a18.84,18.84,0,0,0,10.1-2.7,17.76,17.76,0,0,0,6.7-7.6,25.82,25.82,0,0,0,2.4-11.4,25.52,25.52,0,0,0-2.4-11.4,18,18,0,0,0-6.7-7.7,18.59,18.59,0,0,0-10.1-2.7H655.5V80.6h39.7a40.42,40.42,0,0,1,19.9,4.8A32.9,32.9,0,0,1,728.4,99c3.2,5.8,4.7,12.6,4.7,20.3a42.83,42.83,0,0,1-4.7,20.3,33.88,33.88,0,0,1-13.3,13.5,39.88,39.88,0,0,1-19.9,4.8H655.5Z" transform="translate(-14.8 -35.48)" fill="#333"/><path d="M775.4,202.2a39.56,39.56,0,0,1-15.6-16.3c-3.7-7-5.5-15.2-5.5-24.4V125.8c0-9.3,1.8-17.4,5.5-24.4a39.56,39.56,0,0,1,15.6-16.3,46.43,46.43,0,0,1,23.2-5.8c8.8,0,16.5,1.9,23.2,5.8a39.56,39.56,0,0,1,15.6,16.3c3.7,7,5.5,15.2,5.5,24.4v35.7c0,9.3-1.8,17.4-5.5,24.4a39.56,39.56,0,0,1-15.6,16.3,46.43,46.43,0,0,1-23.2,5.8C789.9,208,782.1,206.1,775.4,202.2Zm37-15.2a23.47,23.47,0,0,0,9.2-10,32.5,32.5,0,0,0,3.3-15V125.1a32.5,32.5,0,0,0-3.3-15,24.06,24.06,0,0,0-9.2-10,28.56,28.56,0,0,0-27.4,0,23.47,23.47,0,0,0-9.2,10,32.5,32.5,0,0,0-3.3,15V162a32.5,32.5,0,0,0,3.3,15,24.06,24.06,0,0,0,9.2,10,26.84,26.84,0,0,0,13.7,3.5A25.88,25.88,0,0,0,812.4,187Z" transform="translate(-14.8 -35.48)" fill="#333"/><path d="M947.2,206.6V107.5l2.1,2.3-63.2,96.9H871.6V80.7h17.5V181.3L887,179l63.4-98.4h14.3v126Z" transform="translate(-14.8 -35.48)" fill="#333"/><path d="M978.6,80.6h89V97.4h-89Zm35.7,10.3H1032V206.7h-17.7Z" transform="translate(-14.8 -35.48)" fill="#333"/><path d="M1081.5,80.6h17.7V206.7h-17.7Zm8.6,0h72.4V97.4h-72.4Zm0,55.1H1153v16.8h-62.9Zm0,54.2h72.4v16.8h-72.4Z" transform="translate(-14.8 -35.48)" fill="#333"/><path d="M1182.5,189.9c5.1,0,9.2-1.2,12.4-3.5s5.5-6,7-10.9,2.3-11.4,2.3-19.3V80.6h17.7v74.5c0,12.1-1.3,22-3.9,29.5s-6.6,13.1-12.1,16.7-12.7,5.4-21.5,5.4h-1.7V189.9Zm32.6-109.3h60.5V97.4h-60.5Zm51.1,0h17.7V206.7h-17.7Z" transform="translate(-14.8 -35.48)" fill="#333"/><path d="M1315.1,80.6h17.7V206.7h-17.7Zm9.1,109.3h39.9a21.31,21.31,0,0,0,10.4-2.4,15.48,15.48,0,0,0,6.5-7.1,25.86,25.86,0,0,0,2.3-11.3,26.32,26.32,0,0,0-2.3-11.4,16.83,16.83,0,0,0-6.5-7.2,19.79,19.79,0,0,0-10.4-2.5h-39.9V131.2h39.3c8,0,14.8,1.5,20.5,4.4a30,30,0,0,1,13,12.9c3,5.7,4.5,12.5,4.5,20.5s-1.5,14.7-4.5,20.3a30.54,30.54,0,0,1-13,12.9c-5.7,2.9-12.5,4.4-20.5,4.4h-39.3Z" transform="translate(-14.8 -35.48)" fill="#333"/><path d="M609.2,299.4V251.9l2-.8-31.4,48.4h-6.1V242.3h6.8v48l-1.7.5,31.1-48.5h6v57.2h-6.7Z" transform="translate(-14.8 -35.48)" fill="#333"/><path d="M629.4,258.5h6.8v40.9h-6.8Zm4.2,17.7h26.6v6.2H633.6Zm22.8-17.7h6.8v40.9h-6.8Z" transform="translate(-14.8 -35.48)" fill="#333"/><path d="M673.9,258.5h31.7v6.3H673.9Zm12.4,3.3h6.8v37.5h-6.8Z" transform="translate(-14.8 -35.48)" fill="#333"/><path d="M723.3,297.8a13.79,13.79,0,0,1-6.1-6.3,21.31,21.31,0,0,1-2.1-9.9V277a25.38,25.38,0,0,1,2-10.4,14.38,14.38,0,0,1,5.9-6.5,18.29,18.29,0,0,1,9.3-2.2,15.32,15.32,0,0,1,8.7,2.4,14.66,14.66,0,0,1,5.5,6.9,27.61,27.61,0,0,1,1.9,10.9v3.7H719.9v-5.7H742v-.2c-.1-3.7-1-6.6-2.7-8.6a8.73,8.73,0,0,0-7-3.1,10.32,10.32,0,0,0-8,3.2c-1.9,2.2-2.8,5.2-2.8,9.2v5.2c0,3.8,1,6.6,3,8.7s4.8,3,8.5,3a13.48,13.48,0,0,0,5.2-1.1,12.91,12.91,0,0,0,4.6-3.1l4.6,4.5a23.68,23.68,0,0,1-6.8,4.5,18.87,18.87,0,0,1-7.6,1.6A18.33,18.33,0,0,1,723.3,297.8Z" transform="translate(-14.8 -35.48)" fill="#333"/><path d="M759.4,258.5h6.8V316h-6.8Zm10.8,39.8a9.84,9.84,0,0,1-4.5-5.3l.6-8.5a10.61,10.61,0,0,0,1.1,4.8,8.06,8.06,0,0,0,3.2,3.4,9.66,9.66,0,0,0,4.9,1.3c3,0,5.4-.9,7-2.7s2.5-4.4,2.5-7.7v-8.9c0-3.4-.8-6-2.5-7.9a9.18,9.18,0,0,0-7-2.8,9.37,9.37,0,0,0-4.9,1.2,8.46,8.46,0,0,0-3.2,3.3,10.49,10.49,0,0,0-1.1,4.7l-.8-7.9a13.49,13.49,0,0,1,5.2-5.6,15,15,0,0,1,7.4-1.8,13.36,13.36,0,0,1,7.4,1.9,12.13,12.13,0,0,1,4.7,5.7,22.28,22.28,0,0,1,1.6,9v8.9a21.73,21.73,0,0,1-1.7,8.9,12.05,12.05,0,0,1-4.8,5.6,14.3,14.3,0,0,1-7.6,1.9A13.85,13.85,0,0,1,770.2,298.3Z" transform="translate(-14.8 -35.48)" fill="#333"/><path d="M803.3,258.5h6.8v40.9h-6.8Zm4.2,17.7h26.6v6.2H807.5Zm22.8-17.7h6.8v40.9h-6.8Z" transform="translate(-14.8 -35.48)" fill="#333"/><path d="M856.8,297.8a13.79,13.79,0,0,1-6.1-6.3,21.31,21.31,0,0,1-2.1-9.9V277a25.38,25.38,0,0,1,2-10.4,14.38,14.38,0,0,1,5.9-6.5,18.29,18.29,0,0,1,9.3-2.2,15.32,15.32,0,0,1,8.7,2.4,14.66,14.66,0,0,1,5.5,6.9,27.61,27.61,0,0,1,1.9,10.9v3.7H853.4v-5.7h22.1v-.2c-.1-3.7-1-6.6-2.7-8.6a8.73,8.73,0,0,0-7-3.1,10.32,10.32,0,0,0-8,3.2c-1.9,2.2-2.8,5.2-2.8,9.2v5.2c0,3.8,1,6.6,3,8.7s4.8,3,8.5,3a13.48,13.48,0,0,0,5.2-1.1,12.91,12.91,0,0,0,4.6-3.1l4.6,4.5a23.68,23.68,0,0,1-6.8,4.5,18.87,18.87,0,0,1-7.6,1.6A18.33,18.33,0,0,1,856.8,297.8Z" transform="translate(-14.8 -35.48)" fill="#333"/><path d="M891,258.5h31.7v6.3H891Zm12.4,3.3h6.8v37.5h-6.8Z" transform="translate(-14.8 -35.48)" fill="#333"/><path d="M987.4,258.5h6v40.9h-6.1v-32l.4,2.9-11.5,21.1h-4l-11.5-21.1.4-2.9v32H955V258.5h6l13.2,24.4Z" transform="translate(-14.8 -35.48)" fill="#333"/><path d="M1007.9,296.8c-2.6-2.2-3.8-5.3-3.8-9.4,0-3.9,1.2-6.9,3.5-9s5.8-3.1,10.3-3.1h12.6l.6,5.9H1018c-2.4,0-4.2.5-5.4,1.6a6,6,0,0,0-1.8,4.7,5.7,5.7,0,0,0,2.4,5,12.11,12.11,0,0,0,6.9,1.7,20.79,20.79,0,0,0,7.5-1c1.7-.7,2.6-1.7,2.6-3l.8,5.5a10.09,10.09,0,0,1-2.9,2.5,12.76,12.76,0,0,1-4,1.5,24.87,24.87,0,0,1-5,.5C1014.1,300,1010.4,298.9,1007.9,296.8Zm22.1-23.3a9.75,9.75,0,0,0-2.4-7c-1.6-1.7-3.9-2.5-6.8-2.5a19.46,19.46,0,0,0-5.3.8,16.11,16.11,0,0,0-4.5,2.4l-5-3.4a14.39,14.39,0,0,1,6.1-4.3,22.44,22.44,0,0,1,8.4-1.6,19.28,19.28,0,0,1,8.7,1.8,12.06,12.06,0,0,1,5.5,5.2,16.3,16.3,0,0,1,1.9,8.2v26.3h-6.7V273.5Z" transform="translate(-14.8 -35.48)" fill="#333"/><path d="M1048.9,258.5h6.8v40.9h-6.8Zm3.9,0H1075V265h-22.2Z" transform="translate(-14.8 -35.48)" fill="#333"/><path d="M1085.2,296.8c-2.6-2.2-3.8-5.3-3.8-9.4,0-3.9,1.2-6.9,3.5-9s5.8-3.1,10.3-3.1h12.6l.6,5.9h-13.1c-2.4,0-4.2.5-5.4,1.6a6,6,0,0,0-1.8,4.7,5.7,5.7,0,0,0,2.4,5,12.11,12.11,0,0,0,6.9,1.7,20.79,20.79,0,0,0,7.5-1c1.7-.7,2.6-1.7,2.6-3l.8,5.5a10.09,10.09,0,0,1-2.9,2.5,12.76,12.76,0,0,1-4,1.5,24.87,24.87,0,0,1-5,.5C1091.5,300,1087.7,298.9,1085.2,296.8Zm22.2-23.3a9.75,9.75,0,0,0-2.4-7c-1.6-1.7-3.9-2.5-6.8-2.5a19.46,19.46,0,0,0-5.3.8,16.11,16.11,0,0,0-4.5,2.4l-5-3.4a14.39,14.39,0,0,1,6.1-4.3,22.44,22.44,0,0,1,8.4-1.6,19.28,19.28,0,0,1,8.7,1.8,12.06,12.06,0,0,1,5.5,5.2,16.3,16.3,0,0,1,1.9,8.2v26.3h-6.7V273.5Z" transform="translate(-14.8 -35.48)" fill="#333"/><path d="M1131.4,298.6a12.38,12.38,0,0,1-5.2-4.1,14.94,14.94,0,0,1-2.5-6.6h6.7a6.56,6.56,0,0,0,2.8,4.4,10.19,10.19,0,0,0,5.8,1.5,10,10,0,0,0,6.1-1.7,5.81,5.81,0,0,0,2.2-4.8h0a4.52,4.52,0,0,0-1.8-3.8,8.81,8.81,0,0,0-5.3-1.4h-5.6v-6.3h5.6a5.92,5.92,0,0,0,4.3-1.5,5.68,5.68,0,0,0,1.5-4.2h0a5.35,5.35,0,0,0-1.9-4.4,8.47,8.47,0,0,0-5.4-1.5,9,9,0,0,0-5.5,1.6,7.41,7.41,0,0,0-3,4.3h-6.7a15.26,15.26,0,0,1,5.1-9,15.56,15.56,0,0,1,10-3.2c4.5,0,8,1,10.4,2.9a9.54,9.54,0,0,1,3.7,8.1h0a9.32,9.32,0,0,1-1.8,5.8,10.68,10.68,0,0,1-4.9,3.6,9,9,0,0,1,5.9,2.9,9.13,9.13,0,0,1,2.1,6.2h0c0,4-1.3,7-4,9.2s-6.4,3.2-11.3,3.2A15.62,15.62,0,0,1,1131.4,298.6Z" transform="translate(-14.8 -35.48)" fill="#333"/><path d="M1191.4,299.4V268.5l.9,1-22,29.9h-5.8V258.6h6.8v31.6l-.9-1,22.1-30.5h5.7v40.8h-6.8Z" transform="translate(-14.8 -35.48)" fill="#333"/><path d="M1210.8,258.5h6.8v40.9h-6.8Zm4.2,17.7h26.6v6.2H1215Zm22.8-17.7h6.8v40.9h-6.8Z" transform="translate(-14.8 -35.48)" fill="#333"/></svg>