<?xml version="1.0" encoding="iso-8859-1"?>
<!-- Generator: Adobe Illustrator 19.0.0, SVG Export Plug-In . SVG Version: 6.00 Build 0)  -->
<svg version="1.1" id="Capa_1" xmlns="http://www.w3.org/2000/svg" xmlns:xlink="http://www.w3.org/1999/xlink" x="0px" y="0px"
	 viewBox="0 0 512.022 512.022" style="enable-background:new 0 0 512.022 512.022;" xml:space="preserve">
<g transform="translate(-1 -1)">
	<g>
		<g>
			<path d="M502.029,8.372l-2.367-2.367c-5.621-5.666-14.437-6.635-21.154-2.325L424.15,38.272l-1.05-1.05
				c-10-9.992-26.204-9.992-36.204,0l-17.831,17.831c-0.013,0.013-0.027,0.023-0.039,0.036s-0.023,0.027-0.035,0.039
				L195.392,228.723c-0.002,0.002-0.005,0.004-0.008,0.007s-0.004,0.005-0.007,0.008l-41.81,41.809
				c-4.804,4.8-7.503,11.312-7.504,18.103s2.697,13.304,7.5,18.105l17.824,17.826L45.405,450.555c-3.32,3.183-8.559,3.183-11.879,0
				L21.55,438.58c-2.156-2.156-5.297-2.997-8.242-2.208c-2.944,0.789-5.244,3.089-6.033,6.033c-0.789,2.944,0.053,6.086,2.208,8.242
				l11.97,11.975c4.767,4.793,11.253,7.481,18.013,7.467c6.759,0.016,13.244-2.673,18.009-7.467l125.978-125.974l17.822,17.824
				c4.792,4.816,11.31,7.516,18.104,7.5c1.136,0.003,2.262-0.077,3.376-0.223l73.549,142.165c2.522,4.779,7.156,8.082,12.496,8.908
				c0.874,0.132,1.757,0.199,2.642,0.2c4.503,0.002,8.82-1.795,11.991-4.992l5.625-5.633c12.226-12.178,15.842-30.556,9.142-46.458
				l-34.372-82.01l36.631,9.16c3.384,0.852,6.86,1.283,10.35,1.283c8.381,0.002,16.575-2.48,23.546-7.133l9.046-6.05
				c5.386-3.619,8.247-9.983,7.379-16.414c-0.868-6.43-5.314-11.808-11.467-13.87l-96.234-32.033l44.078-44.078l2.944,2.944
				c5.557,5.594,13.123,8.73,21.008,8.708l0,0c12.012-0.006,22.838-7.244,27.434-18.341c1.557-3.76,2.276-7.71,2.241-11.623
				c0.088,0.001,0.175,0.006,0.263,0.006l0,0c12.015,0.01,22.851-7.224,27.45-18.323c1.558-3.76,2.277-7.711,2.242-11.624
				c0.082,0.001,0.164,0.006,0.246,0.006c12.013,0.01,22.848-7.221,27.447-18.319c1.555-3.753,2.275-7.697,2.242-11.603
				c0.084,0,0.168,0.006,0.252,0.006c12.013-0.002,22.843-7.24,27.439-18.339c4.596-11.099,2.055-23.874-6.439-32.369l-2.947-2.948
				l11.835-11.835c9.983-10.005,9.983-26.203,0-36.208l-1.05-1.05l34.591-54.358v-0.009
				C508.668,22.801,507.699,13.986,502.029,8.372z M402.528,165.289l-21.524,21.521c-0.001,0.001-0.003,0.002-0.004,0.003
				l-20.161,20.164l-87.571,87.57l-59.781-59.782L375.061,73.191l59.785,59.781L402.528,165.289z M165.63,294.688
				c-1.601-1.6-2.5-3.77-2.5-6.033c0-2.263,0.899-4.433,2.5-6.033l35.79-35.79l59.781,59.781l-35.792,35.792
				c-3.371,3.233-8.692,3.233-12.062,0L165.63,294.688z M316.988,490.33l-5.542,5.7l-73.485-142.04l27.443-27.443l57.05,135.983
				C326.466,472.045,324.304,483.042,316.988,490.33z M364.867,363.055c-5.953,3.974-13.311,5.239-20.25,3.483l-49.028-12.256
				l-11.378-27.065l89.693,29.787L364.867,363.055z M360.042,255.672h-0.004c-4.995,4.783-12.872,4.783-17.867,0l-2.942-2.942
				l17.865-17.874l2.574,2.575l0.373,0.374c2.372,2.368,3.704,5.582,3.704,8.933C363.746,250.09,362.414,253.304,360.042,255.672z
				 M389.968,225.723c-4.93,4.93-12.921,4.937-17.86,0.015l-2.946-2.95l0.561-0.561l17.312-17.312l2.948,2.948
				C394.905,212.802,394.898,220.793,389.968,225.723z M419.921,195.797c-5.003,4.766-12.866,4.767-17.869,0.001
				c-0.001-0.001-0.001-0.001-0.002-0.002l-2.948-2.948l17.213-17.213l0.656-0.656l2.95,2.95c0,0,0.001,0.001,0.001,0.001
				C424.846,182.869,424.846,190.86,419.921,195.797z M449.861,165.861c-4.935,4.936-12.937,4.937-17.873,0.002c0,0,0,0,0,0
				l-2.95-2.95l17.875-17.875l2.946,2.95C454.795,152.923,454.796,160.925,449.861,165.861z M458.746,109.072l-11.834,11.833
				l-59.785-59.781l11.836-11.836c1.599-1.601,3.77-2.498,6.033-2.492c2.264-0.008,4.437,0.89,6.037,2.492l47.713,47.709
				C462.075,100.334,462.075,105.735,458.746,109.072z M457.4,71.513l-17.098-17.091l-3.793-3.793l51.087-32.558l2.329,2.334
				L457.4,71.513z"/>
			<polygon points="410.984,216.547 410.984,216.547 410.984,216.547 			"/>
		</g>
	</g>
</g>
<g>
</g>
<g>
</g>
<g>
</g>
<g>
</g>
<g>
</g>
<g>
</g>
<g>
</g>
<g>
</g>
<g>
</g>
<g>
</g>
<g>
</g>
<g>
</g>
<g>
</g>
<g>
</g>
<g>
</g>
</svg>
